<svg width="525" height="254" viewBox="0 0 525 254" fill="none" xmlns="http://www.w3.org/2000/svg">
<path d="M75.6086 192.344V100.31H49V72.82H134.413V100.31H107.805V192.344H75.6086Z" fill="white"/>
<path d="M167.923 195C160.827 195 154.352 193.938 148.499 191.813C142.645 189.688 137.589 186.678 133.332 182.782C129.163 178.886 125.926 174.238 123.62 168.838C121.402 163.437 120.293 157.505 120.293 151.042C120.293 144.844 121.358 139.134 123.487 133.91C125.704 128.686 128.764 124.171 132.666 120.364C136.658 116.468 141.314 113.458 146.636 111.333C151.958 109.12 157.723 108.013 163.932 108.013C172.091 108.013 179.364 109.872 185.751 113.591C192.137 117.221 197.148 122.223 200.784 128.598C204.51 134.972 206.372 142.232 206.372 150.378V159.408H159.408C157.545 159.408 155.639 159.32 153.687 159.143C151.736 158.877 149.74 158.612 147.7 158.346C148.676 161.179 150.139 163.614 152.091 165.65C154.042 167.687 156.437 169.236 159.275 170.298C162.202 171.361 165.528 171.892 169.253 171.892C173.865 171.892 178.078 171.095 181.892 169.502C185.795 167.908 189.077 165.827 191.737 163.26L197.458 186.501C193.556 189.245 189.077 191.326 184.021 192.742C178.965 194.247 173.599 195 167.923 195ZM147.035 142.675C149.075 142.321 151.071 142.055 153.022 141.878C155.062 141.613 157.013 141.48 158.876 141.48H167.79C169.741 141.48 171.781 141.568 173.91 141.745C176.127 141.923 178.123 142.188 179.897 142.542C179.098 139.798 177.901 137.496 176.304 135.636C174.797 133.689 172.934 132.228 170.717 131.254C168.588 130.28 166.149 129.793 163.399 129.793C160.827 129.793 158.432 130.324 156.215 131.387C154.086 132.361 152.224 133.821 150.627 135.769C149.119 137.629 147.922 139.93 147.035 142.675Z" fill="white"/>
<path d="M209.822 192.344V64.8517H238.959V192.344H209.822Z" fill="white"/>
<path d="M283.939 194.336C278.262 194.336 272.985 193.229 268.107 191.016C263.228 188.802 258.927 185.748 255.201 181.852C251.476 177.957 248.549 173.397 246.421 168.174C244.292 162.95 243.228 157.416 243.228 151.573C243.228 145.641 244.292 140.108 246.421 134.972C248.549 129.749 251.476 125.189 255.201 121.294C258.927 117.309 263.228 114.211 268.107 111.997C272.985 109.784 278.262 108.677 283.939 108.677C288.728 108.677 293.074 109.474 296.977 111.068C300.968 112.573 304.383 114.786 307.221 117.708V110.669H331.169V192.344H307.221V185.305C304.383 188.138 300.968 190.352 296.977 191.945C293.074 193.539 288.728 194.336 283.939 194.336ZM287.265 168.705C290.458 168.705 293.296 167.952 295.779 166.447C298.352 164.853 300.392 162.773 301.899 160.205C303.407 157.638 304.161 154.76 304.161 151.573C304.161 148.297 303.407 145.375 301.899 142.808C300.392 140.24 298.352 138.204 295.779 136.699C293.296 135.105 290.502 134.308 287.398 134.308C284.205 134.308 281.322 135.105 278.75 136.699C276.266 138.204 274.271 140.24 272.763 142.808C271.255 145.375 270.501 148.253 270.501 151.44C270.501 154.716 271.255 157.638 272.763 160.205C274.271 162.773 276.266 164.853 278.75 166.447C281.322 167.952 284.16 168.705 287.265 168.705Z" fill="white"/>
<path d="M373.56 192.344H351.67V78.7962H326.226V59H398.911V78.7962H373.56V192.344Z" fill="white"/>
<path d="M454.017 192.344H416.037L393.96 59H416.879L428.011 127.166L431.753 172.548H438.114L441.856 127.166L453.175 59H476L454.017 192.344Z" fill="white"/>
</svg>
